<svg width="154" height="42" viewBox="0 0 154 42" fill="none" xmlns="http://www.w3.org/2000/svg">
<path d="M119.088 26.9406L114.364 26.9321L99.1807 41.9425H103.913L119.088 26.9406Z" fill="white"/>
<path d="M145.982 0.352936H141.251L125.702 15.7234H130.434L145.982 0.352936Z" fill="white"/>
<path d="M106.639 41.9425H113.511L128.669 26.9576L121.809 26.9453L106.639 41.9425Z" fill="white"/>
<path d="M94.4389 41.9425L109.631 26.9236L95.6921 26.8989L73.2485 26.9049L80.7872 19.4471C83.1993 17.0626 86.4701 15.7234 89.8813 15.7234H120.961L136.509 0.352509H87.799C79.5315 0.352509 71.6023 3.5992 65.7563 9.37849L48.2078 26.7266H29.2814C27.1801 26.7266 26.1276 24.2148 27.6136 22.7462L50.2587 0.35974H28.503L3.15237 25.4205C-3.01223 31.5147 1.3538 41.9344 10.0716 41.9344H32.8243L32.8165 41.9417H94.4393L94.4389 41.9425Z" fill="white"/>
<path d="M133.161 15.7234H138.312L153.86 0.352936H148.71L133.161 15.7234Z" fill="white"/>
</svg>
